<svg xmlns="http://www.w3.org/2000/svg" viewBox="0 0 90 90"><defs><style>.cls-1,.cls-3{fill:#404041;}.cls-2{fill:#2d2d2e;}.cls-2,.cls-3,.cls-4,.cls-5,.cls-6{fill-rule:evenodd;}.cls-4{fill:#ffa400;}.cls-5{fill:#e6e6e6;}.cls-6{fill:#c3c3c3;}</style></defs><title>bee</title><g id="bee"><path class="cls-1" d="M46.15,22.42l-.26,0a1.34,1.34,0,0,1-1-1.57C46.62,11.7,53.93,5.19,62.62,5h0a1.34,1.34,0,0,1,0,2.68C55.13,7.85,49,13.34,47.45,21.34a1.34,1.34,0,0,1-1.31,1.08Z"/><path class="cls-1" d="M43.85,22.42a1.34,1.34,0,0,1-1.31-1.08C41,13.34,34.87,7.85,27.32,7.68A1.34,1.34,0,0,1,27.38,5c8.69.19,16,6.7,17.78,15.83a1.34,1.34,0,0,1-1.05,1.57l-.26,0Z"/><path class="cls-2" d="M40.15,67.26h9.7a1.06,1.06,0,0,1,.83.39,1.09,1.09,0,0,1,.24.89L46.08,84.09a1.09,1.09,0,0,1-2.15,0L39.08,68.54a1.11,1.11,0,0,1,.24-.89A1.07,1.07,0,0,1,40.15,67.26Z"/><ellipse class="cls-1" cx="45" cy="46.8" rx="23.55" ry="30.59"/><path class="cls-3" d="M68.26,41.94a40.16,40.16,0,0,1,.29,4.86,35.87,35.87,0,0,1-6.42,21,34.65,34.65,0,0,1-7.78-6.53c-5.81-6.63-7-16-2.66-21C56.65,34.64,63.07,36.77,68.26,41.94Z"/><path class="cls-3" d="M27.87,67.79a35.88,35.88,0,0,1-6.42-21,40.14,40.14,0,0,1,.3-4.86c5.17-5.18,11.59-7.31,16.56-1.65,4.34,5,3.16,14.35-2.66,21A34.66,34.66,0,0,1,27.87,67.79Z"/><path class="cls-4" d="M67,35.74a295.11,295.11,0,0,1-43.92,0,34,34,0,0,1,3.32-7.64,160.08,160.08,0,0,1,37.27,0A33.75,33.75,0,0,1,67,35.74ZM21.69,42.42a40.33,40.33,0,0,0-.24,4.38c0,1,0,2,.12,3,11.62,4.92,35.25,4.92,46.87,0,.08-1,.11-2,.11-3a39.45,39.45,0,0,0-.24-4.38c-11.4,1.87-35.21,1.87-46.61,0Zm.94,14A34.68,34.68,0,0,0,26,64.92c9.7,4.56,28.24,4.56,37.94,0a34.53,34.53,0,0,0,3.4-8.54C58.52,61.57,31.48,61.57,22.63,56.38Z"/><path class="cls-5" d="M79.08,64.13c-4.92,5-16.9-1-23.49-7.65s-7.93-16-3-21C66.2,21.81,89.45,53.69,79.08,64.13Z"/><path class="cls-5" d="M10.92,64.13c4.92,5,16.9-1,23.48-7.65s7.94-16,3-21C23.81,21.81.55,53.69,10.92,64.13Z"/><path class="cls-6" d="M64.86,63.25a38.49,38.49,0,0,1-9.27-6.76c-6.58-6.63-7.93-16-3-21,4.09-4.12,9-4.12,13.7-1.82A38.26,38.26,0,0,1,68.55,46.8,37.4,37.4,0,0,1,64.86,63.25Z"/><path class="cls-6" d="M25.14,63.25a38.28,38.28,0,0,0,9.27-6.76c6.59-6.63,7.94-16,3-21-4.09-4.12-9-4.12-13.7-1.82A38.21,38.21,0,0,0,21.45,46.8,37.38,37.38,0,0,0,25.14,63.25Z"/></g></svg>