<svg xmlns="http://www.w3.org/2000/svg" viewBox="0 0 90 90"><defs><style>.cls-1{fill:#87613e;}.cls-2{fill:#9cc925;}.cls-3{fill:#7ba60d;}</style></defs><title>green-leaves</title><g id="green-leaves"><path class="cls-1" d="M46.78,43.35V83.58a1.82,1.82,0,0,1-3.55,0V43.35a1.82,1.82,0,0,1,3.55,0Z"/><g id="fill"><path class="cls-2" d="M29.57,20a15.43,15.43,0,0,1,30.85,0C60.42,28.26,45,41.93,45,41.93,43.09,41.69,29.57,28.26,29.57,20Z"/><path class="cls-2" d="M33.14,65.87a15.68,15.68,0,0,1-21.07-5.48,14.75,14.75,0,0,1,5.65-20.46c7.38-4.14,27.29,2,27.29,2C45.74,43.66,40.52,61.74,33.14,65.87Z"/><path class="cls-2" d="M72.29,39.93a14.75,14.75,0,0,1,5.65,20.46,15.68,15.68,0,0,1-21.07,5.48C49.48,61.74,45,41.93,45,41.93,46.17,40.44,64.9,35.79,72.29,39.93Z"/></g><path class="cls-3" d="M62.37,49.87,46.05,40.51a1,1,0,0,0,0-.16V22.77a1.53,1.53,0,0,0-3,0V40.34a1.25,1.25,0,0,0,0,.19L27.6,49.88a1.46,1.46,0,0,0-.49,2,1.55,1.55,0,0,0,2.1.47l15.37-9.3,16.24,9.31a1.57,1.57,0,0,0,.77.21,1.54,1.54,0,0,0,1.32-.73A1.46,1.46,0,0,0,62.37,49.87Z"/></g></svg>