<svg xmlns="http://www.w3.org/2000/svg" viewBox="0 0 90 90"><defs><style>.cls-1{fill:#d4d4d4;}.cls-2{fill:#fc6e51;}.cls-3{fill:#fff;}</style></defs><title>mushroom</title><g id="mushroom"><rect class="cls-1" x="32.51" y="39.91" width="24.99" height="44.09" rx="10.79" ry="10.79"/><path class="cls-2" d="M79.5,34c0,15.31-15.45,18.49-34.5,18.49S10.5,49.34,10.5,34,25.95,6.29,45,6.29,79.5,18.71,79.5,34Z"/><path class="cls-3" d="M45.6,51.49a10.41,10.41,0,0,1-.15,1.31H44.08c-2.28-.1-4.48-.15-6.65-.19A68.1,68.1,0,0,1,26.3,51.15c0-.18,0-.36,0-.55A9.92,9.92,0,0,1,36.4,40.9,9.93,9.93,0,0,1,45.6,51.49ZM19.12,27.43a4.71,4.71,0,1,0,4.47,4.92A4.69,4.69,0,0,0,19.12,27.43ZM58.06,48.38a4.71,4.71,0,1,0-4.47-4.92A4.7,4.7,0,0,0,58.06,48.38ZM34.11,7.49s0-.05,0-.08a38.41,38.41,0,0,0-9.84,4.11,5.85,5.85,0,0,0,9.85-4ZM51,12.92a2.35,2.35,0,0,0,2.59-2.06,2.51,2.51,0,0,0-5-.23A2.35,2.35,0,0,0,51,12.92Zm9.65,3.75c-.24,5.36,4.41,9.93,10.39,10.2A11.56,11.56,0,0,0,78,25c-2.59-6.08-7.7-11.21-14.34-14.6A9.11,9.11,0,0,0,60.68,16.67Zm-21,10.23a2.94,2.94,0,1,0-2.79-3.08A2.94,2.94,0,0,0,39.68,26.9ZM67.19,41.14a2.95,2.95,0,1,0-2.79-3.08A2.94,2.94,0,0,0,67.19,41.14Z"/></g></svg>