<svg xmlns="http://www.w3.org/2000/svg" viewBox="0 0 90 90"><defs><style>.cls-1{fill:#7f523b;}.cls-1,.cls-2{fill-rule:evenodd;}.cls-2{fill:#9cc925;}.cls-3{fill:#754c36;}</style></defs><title>tree-2</title><g id="tree-2"><path class="cls-1" d="M61.44,61.6,61,61.12a1.06,1.06,0,0,0-1.5,0L45,75.7,30.54,61.12a1.06,1.06,0,0,0-1.5,0l-.48.48a1.08,1.08,0,0,0,0,1.51L43.27,77.94a1.06,1.06,0,0,0,1.5,0l.22-.23.22.23a1.06,1.06,0,0,0,1.5,0L61.44,63.11A1.08,1.08,0,0,0,61.44,61.6Z"/><path class="cls-2" d="M62.25,52.74A10.88,10.88,0,1,1,51.17,63.62,11,11,0,0,1,62.25,52.74Z"/><path class="cls-2" d="M27.75,53.51A10.88,10.88,0,1,1,16.67,64.39,11,11,0,0,1,27.75,53.51Z"/><path class="cls-1" d="M61.44,36.6,61,36.12a1.06,1.06,0,0,0-1.5,0L45,50.7,30.54,36.12a1.06,1.06,0,0,0-1.5,0l-.48.48a1.08,1.08,0,0,0,0,1.51L43.27,52.94a1.06,1.06,0,0,0,1.5,0l.22-.23.22.23a1.06,1.06,0,0,0,1.5,0L61.44,38.11A1.08,1.08,0,0,0,61.44,36.6Z"/><path class="cls-2" d="M62.25,27.74A10.88,10.88,0,1,1,51.17,38.62,11,11,0,0,1,62.25,27.74Z"/><path class="cls-2" d="M27.75,28.51A10.88,10.88,0,1,1,16.67,39.39,11,11,0,0,1,27.75,28.51Z"/><rect class="cls-3" x="43.6" y="26.1" width="2.8" height="58.9" rx="1.4" ry="1.4"/><path class="cls-2" d="M45.08,5A12.84,12.84,0,0,1,58,17.72a13,13,0,0,1-25.9,0A12.84,12.84,0,0,1,45.08,5Z"/></g></svg>