<svg xmlns="http://www.w3.org/2000/svg" viewBox="0 0 90 90"><defs><style>.cls-1{fill:#fc6e51;}.cls-2{fill:#e9573f;}.cls-3{fill:#ffa7ca;}</style></defs><title>blossom</title><g id="blossom"><path class="cls-1" d="M26.65,47.73A16.53,16.53,0,1,1,43.17,64.63,16.71,16.71,0,0,1,26.65,47.73Z"/><ellipse class="cls-2" cx="43.17" cy="47.74" rx="8.78" ry="9.07"/><path class="cls-3" d="M43.22,5A13.52,13.52,0,0,0,29.92,18.74c0,6.58,4.48,16.57,10.47,19.1V28.67a2.77,2.77,0,1,1,5.54,0v9.24c6.05-2.44,10.6-12.54,10.6-19.17A13.53,13.53,0,0,0,43.22,5Z"/><path class="cls-3" d="M82.52,34.56a13.23,13.23,0,0,0-16.77-8.82c-6.06,2-13.88,9.52-14.37,16.18l8.45-2.84a2.76,2.76,0,0,1,3.49,1.84,2.88,2.88,0,0,1-1.78,3.6L53,47.38c4.13,5.18,14.83,6.53,20.94,4.48A13.83,13.83,0,0,0,82.52,34.56Z"/><path class="cls-3" d="M67.46,82.37a14,14,0,0,0,2.94-19.19c-3.75-5.32-13.06-10.68-19.34-9.11l5.22,7.42a2.92,2.92,0,0,1-.62,4,2.71,2.71,0,0,1-3.87-.63l-5.26-7.47C43,63,45.11,74,48.88,79.34A13,13,0,0,0,67.46,82.37Z"/><path class="cls-3" d="M18.72,82.29a13,13,0,0,0,18.58-3c3.75-5.32,5.81-16.13,2.41-21.81l-5.22,7.41a2.71,2.71,0,0,1-3.87.63,2.92,2.92,0,0,1-.61-4L35.27,54c-6.28-1.7-15.71,3.71-19.49,9.08A14,14,0,0,0,18.72,82.29Z"/><path class="cls-3" d="M3.83,34.42a13.83,13.83,0,0,0,8.54,17.31c6.06,2,16.65.72,20.84-4.37l-8.45-2.84A2.87,2.87,0,0,1,23,40.91a2.75,2.75,0,0,1,3.49-1.84L35,41.92c-.38-6.7-8.28-14.29-14.38-16.33A13.22,13.22,0,0,0,3.83,34.42Z"/></g></svg>