<svg xmlns="http://www.w3.org/2000/svg" viewBox="0 0 90 90"><defs><style>.cls-1{fill:#2b2b2b;}.cls-1,.cls-5{fill-rule:evenodd;}.cls-2{fill:#7ba60d;}.cls-3{fill:#ffa400;}.cls-4{fill:#9cc925;}.cls-5{fill:#ffd900;}.cls-6{fill:#404041;}</style></defs><title>butterfly</title><g id="butterfly"><path class="cls-1" d="M52.18,12.89a4.33,4.33,0,0,0-4.89,3.65l-2,10.94,2.74.48L50,17c.22-1.21,1-2.08,1.76-1.95a1.28,1.28,0,0,0,1.57-.85A1.27,1.27,0,0,0,52.18,12.89Z"/><path class="cls-1" d="M37.82,12.89a1.27,1.27,0,0,0-1.17,1.34,1.28,1.28,0,0,0,1.57.85c.76-.13,1.54.74,1.76,1.95l2,10.94,2.74-.48-2-10.94A4.33,4.33,0,0,0,37.82,12.89Z"/><path class="cls-2" d="M51.92,55.61H62.87a8.58,8.58,0,0,1,8.58,8.58v13a0,0,0,0,1,0,0H64.83A17.23,17.23,0,0,1,47.6,59.93v0A4.33,4.33,0,0,1,51.92,55.61Z" transform="translate(119.04 132.77) rotate(180)"/><ellipse class="cls-3" cx="57.87" cy="66.39" rx="4.32" ry="4.3"/><path class="cls-2" d="M35.79,55.61H42.4a0,0,0,0,1,0,0v13a8.58,8.58,0,0,1-8.58,8.58H22.88a4.33,4.33,0,0,1-4.33-4.33v0A17.23,17.23,0,0,1,35.79,55.61Z"/><ellipse class="cls-3" cx="32.13" cy="66.39" rx="4.32" ry="4.3"/><path class="cls-4" d="M74.62,25.81H85a0,0,0,0,1,0,0V46.16A13.46,13.46,0,0,1,71.54,59.62H54.38a6.78,6.78,0,0,1-6.78-6.78v0a27,27,0,0,1,27-27Z" transform="translate(132.6 85.42) rotate(-180)"/><path class="cls-5" d="M54.41,52.83V39.27a6.7,6.7,0,0,1,6.71-6.68H78.18A20.31,20.31,0,0,1,57.85,52.83Z"/><path class="cls-4" d="M11.78,25.81H28.95A13.46,13.46,0,0,1,42.4,39.27V59.62a0,0,0,0,1,0,0H32a27,27,0,0,1-27-27v0A6.78,6.78,0,0,1,11.78,25.81Z"/><path class="cls-5" d="M35.59,52.83V39.27a6.7,6.7,0,0,0-6.71-6.68H11.82A20.31,20.31,0,0,0,32.15,52.83Z"/><rect class="cls-6" x="42.39" y="27.41" width="5.22" height="47.54" rx="2.53" ry="2.53"/><ellipse class="cls-6" cx="45" cy="24.39" rx="6.96" ry="6.91"/></g></svg>