<svg xmlns="http://www.w3.org/2000/svg" viewBox="0 0 90 90"><defs><style>.cls-1{fill:#f0f0f0;}.cls-2{fill:#ffd900;}.cls-3{fill:#ffa400;}</style></defs><title>daffodil_1</title><g id="daffodil"><path class="cls-1" d="M67.13,46.75C66,46.1,64.86,45.52,63.73,45c1.13-.52,2.27-1.11,3.4-1.76C76.77,37.7,80.93,26.89,79.83,25s-12.59-3.72-22.24,1.82q-1.7,1-3.22,2.05c.11-1.23.17-2.5.17-3.8C54.54,14,47.2,5,45,5s-9.54,9-9.54,20.06c0,1.3.06,2.57.18,3.8q-1.53-1.07-3.23-2.05C22.76,21.28,11.27,23.1,10.17,25s3.05,12.71,12.7,18.25c1.13.65,2.27,1.23,3.4,1.76-1.13.52-2.26,1.1-3.4,1.75C13.23,52.29,9.07,63.1,10.17,65s12.59,3.72,22.24-1.82c1.13-.65,2.21-1.34,3.23-2-.11,1.23-.17,2.5-.17,3.8C35.46,76,42.8,85,45,85s9.54-9,9.54-20.07c0-1.31-.06-2.58-.17-3.81q1.53,1.08,3.23,2.06c9.65,5.54,21.13,3.71,22.24,1.82S76.77,52.29,67.13,46.75Z"/><path class="cls-2" d="M58.68,45c0,1.2-1.44,2.18-1.75,3.28s.43,2.66-.14,3.62-2.35,1.14-3.19,2-.93,2.47-1.91,3-2.5-.23-3.59.06-2,1.68-3.1,1.68-2.19-1.44-3.3-1.74-2.67.43-3.64-.14-1.15-2.33-2-3.17-2.48-.92-3-1.89.23-2.48-.05-3.58-1.7-2-1.7-3.08,1.44-2.18,1.75-3.28-.43-2.65.14-3.62,2.35-1.14,3.19-2,.93-2.47,1.91-3,2.49.23,3.59-.05,2-1.69,3.1-1.69,2.2,1.44,3.3,1.74,2.67-.43,3.64.14,1.14,2.34,2,3.17,2.48.93,3,1.89-.23,2.49.05,3.58S58.68,43.88,58.68,45Z"/><ellipse class="cls-3" cx="45" cy="45" rx="7.82" ry="7.77"/></g></svg>