<svg xmlns="http://www.w3.org/2000/svg" viewBox="0 0 90 90"><defs><style>.cls-1{fill:#7ba60d;}.cls-2{fill:#ffb914;}.cls-3{fill:#964b00;}.cls-4{fill:#a3611f;}.cls-5{fill:#9cc925;}</style></defs><title>sunflower</title><g id="sunflower"><path class="cls-1" d="M43.17,39.27V83.45a1.86,1.86,0,0,0,3.66,0V39.27Z"/><path class="cls-2" d="M52.36,39.84c2.28,3.47,8.21,14.86,13.9,7.14,5.5-7.44-7.09-10.17-10.87-11.43a3.71,3.71,0,0,1-3,4.29C53.75,42,53.27,39.68,52.36,39.84Z"/><path class="cls-2" d="M45.79,42.52c-.17,4.15-2,16.89,7.1,14,8.76-2.75.19-12.44-2.13-15.7a3.7,3.7,0,0,1-5,1.68C45.68,45.06,46.61,42.93,45.79,42.52Z"/><path class="cls-2" d="M38.92,40.78C36.36,44,27.49,53.26,36.5,56.33c8.69,3,7.39-9.94,7.42-14a3.71,3.71,0,0,1-5-1.59C37.35,42.77,39.34,41.6,38.92,40.78Z"/><path class="cls-2" d="M34.38,35.29c-4,1.11-16.51,3.31-11,11.14,5.3,7.58,11.77-3.65,14.13-6.88a3.74,3.74,0,0,1-3.11-4.26C31.95,36,34.25,36.22,34.38,35.29Z"/><path class="cls-2" d="M33.89,28.18C30,26.71,18.61,21,18.49,30.64c-.12,9.28,11.65,4,15.44,2.8a3.75,3.75,0,0,1,0-5.27C31.53,27.28,33.24,28.84,33.89,28.18Z"/><path class="cls-2" d="M37.64,22.11C35.37,18.64,29.44,7.26,23.75,15c-5.5,7.44,7.08,10.17,10.87,11.43a3.71,3.71,0,0,1,3-4.29C36.25,20,36.73,22.27,37.64,22.11Z"/><path class="cls-2" d="M44.21,19.43c.18-4.15,2-16.9-7.1-14-8.76,2.75-.19,12.43,2.13,15.7a3.69,3.69,0,0,1,5-1.68C44.32,16.89,43.39,19,44.21,19.43Z"/><path class="cls-2" d="M51.09,21.18C53.64,17.92,62.51,8.69,53.5,5.62c-8.69-3-7.4,9.94-7.42,14a3.71,3.71,0,0,1,5,1.59C52.65,19.18,50.66,20.35,51.09,21.18Z"/><path class="cls-2" d="M55.62,26.66c4-1.12,16.51-3.31,11-11.14-5.29-7.58-11.76,3.65-14.13,6.88a3.75,3.75,0,0,1,3.11,4.26C58.05,26,55.76,25.73,55.62,26.66Z"/><path class="cls-2" d="M56.11,33.78c3.86,1.46,15.28,7.15,15.39-2.47.13-9.28-11.65-4-15.44-2.8a3.74,3.74,0,0,1,0,5.27C58.47,34.67,56.76,33.11,56.11,33.78Z"/><ellipse class="cls-3" cx="45" cy="30.97" rx="12.18" ry="12.3"/><path class="cls-4" d="M55.77,30.14a.75.75,0,1,1-.75-.76A.76.76,0,0,1,55.77,30.14Zm-1.62-4a.76.76,0,1,0,.75.76A.76.76,0,0,0,54.15,26.16Zm-1.77-2.7a.76.76,0,1,0,.76.76A.76.76,0,0,0,52.38,23.46ZM50,21.15a.76.76,0,1,0,.75.76A.76.76,0,0,0,50,21.15Zm-3.2-.87a.76.76,0,1,0,.75.76A.76.76,0,0,0,46.79,20.28Zm-3.21-.14a.76.76,0,1,0,.76.76A.76.76,0,0,0,43.58,20.14Zm-3.2.87a.76.76,0,1,0,.76.76A.76.76,0,0,0,40.38,21Zm-2.52,2.07a.76.76,0,1,0,.75.76A.76.76,0,0,0,37.86,23.08Zm-2,2.56a.76.76,0,1,0,.75.76A.76.76,0,0,0,35.85,25.65ZM35,28.87a.76.76,0,1,0,.75.76A.76.76,0,0,0,35,28.87Zm.2,3.23a.76.76,0,1,0,.75.76A.76.76,0,0,0,35.19,32.1Zm.87,3.22a.76.76,0,1,0,.75.76A.76.76,0,0,0,36.05,35.32Zm2.34,2.37a.76.76,0,1,0,.75.76A.75.75,0,0,0,38.39,37.69Zm2.71,1.73a.76.76,0,1,0,.75.76A.76.76,0,0,0,41.11,39.42Zm3.2.87a.76.76,0,1,0,.75.76A.76.76,0,0,0,44.31,40.29Zm3.21-.54a.76.76,0,1,0,.76.76A.76.76,0,0,0,47.52,39.75Zm3-1.15a.76.76,0,1,0,.75.76A.75.75,0,0,0,50.56,38.6Zm2.35-2.36a.76.76,0,1,0,.75.76A.76.76,0,0,0,52.91,36.24Zm1.43-2.9a.76.76,0,1,0,.76.76A.76.76,0,0,0,54.34,33.34Zm-3.08-6.4a.94.94,0,1,0,.94.95A.94.94,0,0,0,51.26,26.94Zm-2.63-3.1a.94.94,0,1,0,.94.94A.94.94,0,0,0,48.63,23.84Zm-3.94-1a.94.94,0,1,0,.94.94A.94.94,0,0,0,44.69,22.82Zm-3.82,1.37a.94.94,0,1,0,.94.95A.94.94,0,0,0,40.88,24.19Zm-2.41,3.23a.94.94,0,1,0,.94.95A.94.94,0,0,0,38.47,27.42Zm-.27,4a.94.94,0,1,0,.94.94A.94.94,0,0,0,38.2,31.43Zm1.94,3.5a.94.94,0,1,0,.94.94A.94.94,0,0,0,40.14,34.93Zm3.55,1.84a.94.94,0,1,0,.94.94A.94.94,0,0,0,43.68,36.77Zm4-.41a.94.94,0,1,0,.94.94A.94.94,0,0,0,47.67,36.37Zm3.15-2.53a.94.94,0,1,0,.94.94A.94.94,0,0,0,50.81,33.84Zm1.25-3.9a.94.94,0,1,0,.94.94A.94.94,0,0,0,52.07,29.93Z"/><path class="cls-5" d="M34.16,61.71c-5.74-4.51-9.43-3.85-11.54-1.12s-1.83,7.12,3.91,11c6,4.1,16.89,4.18,16.89,4.18S39.91,66.22,34.16,61.71Z"/><path class="cls-5" d="M55.84,61.71c-5.75,4.51-9.26,14.08-9.26,14.08s10.85-.08,16.89-4.18c5.74-3.9,6-8.29,3.91-11S61.59,57.19,55.84,61.71Z"/></g></svg>